<svg width="21" height="21" viewBox="0 0 21 21" fill="none" xmlns="http://www.w3.org/2000/svg">
<rect width="21" height="21" rx="5" fill="#1F98B3" fill-opacity="0.3"/>
<path d="M17.052 13.9645C17.0229 13.8615 16.967 13.7681 16.89 13.6937C16.8131 13.6193 16.7177 13.5667 16.6138 13.5412C15.5842 13.2669 14.6047 12.8311 13.7117 12.2499C13.5328 12.1373 13.3082 12.126 13.119 12.2203C12.5099 12.5236 12.0321 13.0382 11.7748 13.6682C10.9304 13.1 10.1441 12.4497 9.42727 11.7271C8.70538 11.0102 8.05587 10.2239 7.48832 9.3796C7.83345 9.24003 8.14671 9.03194 8.40912 8.76781C8.62354 8.55434 8.80224 8.30777 8.93832 8.0375C9.02989 7.84822 9.01789 7.6252 8.90657 7.44688C8.32453 6.55281 7.88871 5.5717 7.61532 4.54044C7.59009 4.43659 7.53745 4.34143 7.46308 4.26477C7.38861 4.18804 7.29496 4.13266 7.19196 4.10441C6.28541 3.84945 5.31141 4.06821 4.60099 4.68652C3.85595 5.56706 3.80512 7.00649 4.44015 8.74014C5.03286 10.3298 6.17385 12.0191 7.65141 13.4987C9.12891 14.9784 10.8244 16.1173 12.4143 16.7163C13.1113 16.9919 13.8517 17.1417 14.601 17.1587C15.2738 17.1873 15.9347 16.9741 16.4638 16.5575V16.5448C16.7546 16.2099 16.96 15.8098 17.0628 15.3784C17.18 14.9139 17.1764 14.4271 17.0522 13.9644L17.052 13.9645Z" fill="#1F98B3"/>
</svg>
