<svg width="21" height="21" viewBox="0 0 21 21" fill="none" xmlns="http://www.w3.org/2000/svg">
<path d="M13.3843 13.2788C13.1949 13.6104 12.9896 13.9262 12.7843 14.2262C14.1106 14.5263 14.9 15.0473 14.9 15.4421C14.9 16.0262 13.1474 16.9104 10.4948 16.9104C7.84212 16.9104 6.08948 16.0262 6.08948 15.4421C6.08948 15.0473 6.87895 14.542 8.20525 14.2262C7.99995 13.9262 7.79475 13.6104 7.60522 13.2788C6.08937 13.6735 5 14.384 5 15.4419C5 17.1156 7.76317 17.9998 10.4948 17.9998C13.2263 17.9998 15.9895 17.1156 15.9895 15.4419C15.9895 14.3842 14.9 13.6735 13.3843 13.2788Z" fill="#1F98B3"/>
<path d="M10.9838 15C12.1049 13.3421 14.7891 9.1895 14.7891 7.31054C14.7891 4.92635 12.8627 3 10.4943 3C8.12589 3 6.18378 4.92632 6.18378 7.31054C6.18378 9.18953 8.88384 13.3421 10.0048 15C10.2416 15.3317 10.747 15.3317 10.9838 15.0002L10.9838 15ZM8.48905 7.31054C8.48905 6.2053 9.38911 5.30524 10.4943 5.30524C11.5996 5.30524 12.4996 6.2053 12.4996 7.31054C12.4996 8.41578 11.5996 9.30008 10.4943 9.30008C9.38911 9.30008 8.48905 8.40002 8.48905 7.31054Z" fill="#1F98B3"/>
<rect width="21" height="21" rx="5" fill="#1F98B3" fill-opacity="0.3"/>
</svg>
