<svg width="21" height="21" viewBox="0 0 21 21" fill="none" xmlns="http://www.w3.org/2000/svg">
<path d="M0 5C0 2.23858 2.23858 0 5 0H16C18.7614 0 21 2.23858 21 5V16C21 18.7614 18.7614 21 16 21H5C2.23858 21 0 18.7614 0 16V5Z" fill="#1F98B3" fill-opacity="0.3"/>
<path d="M16.058 15.0058V8.72978C16.0526 8.6198 15.9684 8.52611 15.8544 8.52611H4.67815C4.52607 8.52611 4.374 8.52339 4.22329 8.52611H4.20428C4.09429 8.52611 4.0006 8.6198 4.0006 8.72978V15.5041C4.0006 15.5747 3.99925 15.6467 4.0006 15.7173C4.00603 16.016 4.23958 16.2468 4.5383 16.2496C4.70803 16.2509 4.87912 16.2496 5.04883 16.2496H15.3642H15.5245C15.8232 16.2468 16.0567 16.0119 16.0594 15.7146C16.0608 15.4783 16.0581 15.242 16.0581 15.0058L16.058 15.0058ZM12.7965 10.8127C12.7938 10.814 12.7925 10.8168 12.7911 10.8181C12.6567 10.9607 12.5127 11.0965 12.3742 11.235L11.5188 12.0904C11.1902 12.419 10.863 12.7462 10.5344 13.0748C10.2601 13.3491 9.98856 13.622 9.71562 13.8936C9.60156 14.0076 9.48886 14.1203 9.37479 14.2344C9.27024 14.339 9.09373 14.3376 8.99051 14.2344L7.26337 12.5073C7.1561 12.4 7.16425 12.2316 7.26337 12.123C7.36249 12.0144 7.54716 12.0225 7.64764 12.123C7.71961 12.195 7.79022 12.2656 7.86218 12.3375C8.17177 12.6471 8.48136 12.9567 8.78959 13.2663L9.18064 13.6573C9.25804 13.5813 9.3368 13.5053 9.41419 13.4292C9.69932 13.1441 9.98448 12.8589 10.2696 12.5738C10.5982 12.2452 10.9254 11.9166 11.254 11.5894C11.527 11.3165 11.7999 11.0435 12.0715 10.772C12.1855 10.6579 12.2982 10.5452 12.4123 10.4311C12.5195 10.3239 12.6879 10.332 12.7966 10.4311C12.9038 10.5289 12.897 10.7122 12.7966 10.8127L12.7965 10.8127Z" fill="#1F99B4"/>
<path d="M16.0581 5.68268C16.0431 5.39618 15.8191 5.17622 15.5312 5.16805H15.4959H13.8176V4.40766C13.8176 4.19448 13.6303 3.99081 13.4103 4.00032C13.189 4.00983 13.003 4.17956 13.003 4.40766V5.16805H7.0557V4.40766C7.0557 4.19448 6.86832 3.99081 6.64836 4.00032C6.42703 4.00983 6.24101 4.17956 6.24101 4.40766V5.16805H4.62383C4.53557 5.16805 4.45003 5.16533 4.3645 5.19385C4.14181 5.26989 4.00194 5.47491 4.0006 5.70711C3.99925 5.77772 4.0006 5.84832 4.0006 5.91893V7.77916C4.0006 7.88914 4.09429 7.98283 4.20428 7.98283H15.3805C15.5326 7.98283 15.6847 7.98555 15.8354 7.98283H15.8544C15.9644 7.98283 16.058 7.88914 16.058 7.77916V5.69624V5.68266L16.0581 5.68268Z" fill="#1F99B4"/>
</svg>
