<svg width="14" height="14" viewBox="0 0 14 14" fill="none" xmlns="http://www.w3.org/2000/svg">
    <path
        d="M11.6249 10.198L9.82606 8.7686C9.53119 8.5328 9.17727 8.38549 8.79396 8.35599C8.23363 8.32649 7.70282 8.54759 7.349 8.94538C7.26054 9.03379 7.12787 9.04859 7.02461 8.97489C6.28737 8.38549 5.62389 7.72226 5.03402 6.98545C4.96027 6.88225 4.96027 6.74965 5.06354 6.66126C5.49108 6.27814 5.72702 5.68864 5.63858 5.06975C5.59436 4.74555 5.44687 4.43615 5.24045 4.17084L3.81021 2.37303C3.4711 1.96052 2.95501 1.69522 2.40948 1.69522C2.29151 1.69522 2.17354 1.70992 2.05558 1.72472C1.53946 1.82793 1.09722 2.06363 0.758015 2.40264C0.25672 2.90364 -0.451107 4.06785 0.389397 6.33719C0.920208 7.7666 1.96714 9.29916 3.3236 10.6549C5.38782 12.7327 7.77652 14 9.59012 14C10.4011 14 11.0941 13.7348 11.5954 13.2485C11.9198 12.9243 12.1557 12.5117 12.2589 12.0107C12.4211 11.3328 12.1704 10.6254 11.6249 10.198L11.6249 10.198ZM11.3299 11.7895C11.2562 12.099 11.1235 12.3495 10.9171 12.5558C10.5927 12.88 10.1356 13.0274 9.59012 13.0274C8.10093 13.0274 5.93342 11.8927 4.0166 9.99178C1.39204 7.38335 0.241946 4.28889 1.43627 3.09526C1.6574 2.87426 1.92285 2.74156 2.26195 2.66796C2.32089 2.65326 2.36521 2.65326 2.42415 2.65326C2.6748 2.65326 2.91073 2.77117 3.07294 2.97746L4.50319 4.80459C4.81288 5.20249 4.70961 5.7772 4.28206 6.02769L3.92816 6.23399C3.69222 6.38139 3.61846 6.69078 3.78067 6.92659C4.6801 8.1939 5.78595 9.29911 7.054 10.198C7.27513 10.3601 7.59953 10.2864 7.747 10.0506L7.95343 9.69692C8.11562 9.43172 8.38097 9.29902 8.66115 9.29902C8.83805 9.29902 9.02977 9.35792 9.17727 9.47582L11.0056 10.9199C11.2857 11.1559 11.4037 11.48 11.3299 11.7896L11.3299 11.7895Z"
        fill="#868686" />
    <path
        d="M7.85038 4.18565C7.49648 4.09725 7.17207 4.37725 7.18689 4.73086C7.2016 4.96666 7.3638 5.15816 7.59974 5.20247C7.87992 5.27617 8.14527 5.40877 8.3665 5.62977C8.58763 5.85077 8.73512 6.11606 8.79404 6.39607C8.85298 6.61707 9.04469 6.79398 9.26593 6.80869C9.61983 6.83819 9.8999 6.49917 9.81146 6.14558C9.69349 5.67397 9.45756 5.23197 9.10373 4.87827C8.74973 4.53937 8.30747 4.30356 7.85038 4.18568V4.18565Z"
        fill="#868686" />
    <path
        d="M11.3744 6.9708C11.6988 7.0003 11.9641 6.7203 11.9347 6.39609C11.8462 5.32038 11.3892 4.27406 10.5635 3.44886C9.73781 2.62366 8.69088 2.16684 7.61454 2.07845C7.29015 2.04895 7.00998 2.31425 7.03949 2.63845C7.0542 2.90365 7.26062 3.11006 7.52607 3.13945C8.36657 3.21315 9.17746 3.56675 9.82623 4.20045C10.4602 4.83406 10.8288 5.65936 10.8878 6.49927C10.9025 6.74977 11.1236 6.95607 11.3743 6.97078L11.3744 6.9708Z"
        fill="#868686" />
    <path
        d="M12.023 1.99002C10.755 0.722708 9.10355 0.0595016 7.43739 0.000583284C7.1277 -0.0141158 6.87706 0.251085 6.89186 0.560584C6.90657 0.825782 7.1278 1.04688 7.40798 1.04688C8.8087 1.09108 10.2095 1.65109 11.2711 2.7268C12.3474 3.80251 12.9078 5.18774 12.952 6.58768C12.9667 6.85287 13.1731 7.07397 13.4386 7.10349C13.7483 7.11819 14.0136 6.88249 13.9989 6.55828C13.9547 4.90775 13.2911 3.25738 12.023 1.99007L12.023 1.99002Z"
        fill="#868686" />
</svg>
