<svg width="40" height="41" viewBox="0 0 40 41" fill="none" xmlns="http://www.w3.org/2000/svg">
<ellipse cx="20.1935" cy="20.5139" rx="19.7858" ry="19.5305" fill="white"/>
<path d="M34.6927 13.0223H28.2884L24.5465 9.74834V8.45653C24.5465 8.17638 24.3194 7.94922 24.0392 7.94922H15.9222C15.6421 7.94922 15.4149 8.17638 15.4149 8.45653V9.74834L11.6731 13.0223H5.26878C4.98863 13.0223 4.76147 13.2495 4.76147 13.5296V20.1247C4.76147 20.4048 4.98863 20.632 5.26878 20.632H5.77609V32.8074C5.77609 33.0876 6.00325 33.3147 6.2834 33.3147H33.6782C33.9583 33.3147 34.1855 33.0876 34.1855 32.8074V20.632H34.6928C34.9729 20.632 35.2001 20.4048 35.2001 20.1247V13.5296C35.2001 13.2495 34.9729 13.0223 34.6928 13.0223H34.6927ZM26.7473 13.0223H24.5462V11.0963L26.7473 13.0223ZM16.4295 8.96384H23.5318V16.0662H16.4295V8.96384ZM15.4149 11.0963V13.0223H13.2137L15.4149 11.0963ZM20.9953 29.7636H9.32715V22.6613H20.9953V29.7636ZM22.0099 30.2709V22.6613H26.5757V32.3002H22.0099V30.2709ZM33.1707 32.3002H27.5903V30.7782H31.1415C31.4216 30.7782 31.6488 30.5511 31.6488 30.2709V22.154C31.6488 21.8738 31.4216 21.6467 31.1415 21.6467H8.81984C8.53969 21.6467 8.31253 21.8738 8.31253 22.154V30.2709C8.31253 30.5511 8.53969 30.7782 8.81984 30.7782H20.9953V32.3002H6.7906V20.632H33.1707V32.3002ZM27.5903 29.7636V22.6613H30.6342V29.7636H27.5903ZM34.1853 19.6174H5.77598V14.037H15.4149V16.5735C15.4149 16.8537 15.642 17.0809 15.9222 17.0809H24.0391C24.3193 17.0809 24.5465 16.8537 24.5465 16.5735V14.037H34.1853V19.6174Z" fill="#9481FC"/>
<path d="M20.488 10.4858H19.4733V12.0078H17.9514V13.0224H19.4733V14.5443H20.488V13.0224H22.0099V12.0078H20.488V10.4858Z" fill="#9481FC"/>
<path d="M23.0247 27.2271H24.0393V29.2563H23.0247V27.2271Z" fill="#9481FC"/>
</svg>
