<svg width="10" height="10" viewBox="0 0 10 10" fill="none" xmlns="http://www.w3.org/2000/svg">
<path d="M6.00996 5L9.79074 8.78078C10.0698 9.0598 10.0698 9.51171 9.79074 9.79073C9.51172 10.0698 9.0598 10.0698 8.78078 9.79073L5 6.00996L1.21922 9.79073C0.940204 10.0698 0.488286 10.0698 0.209265 9.79073C-0.0697551 9.51171 -0.0697551 9.0598 0.209265 8.78078L3.99004 5L0.209265 1.21922C-0.0697551 0.940203 -0.0697551 0.488286 0.209265 0.209265C0.488286 -0.0697551 0.940204 -0.0697551 1.21922 0.209265L5 3.99004L8.78078 0.209265C9.0598 -0.0697551 9.51172 -0.0697551 9.79074 0.209265C10.0698 0.488286 10.0698 0.940203 9.79074 1.21922L6.00996 5Z" fill="#10036C"/>
</svg>
