<svg width="15" height="18" viewBox="0 0 15 18" fill="none" xmlns="http://www.w3.org/2000/svg">
<path d="M9.96326 0H1.53281C0.689764 0 0 0.736364 0 1.63636V12.2727C0 12.7227 0.344882 13.0909 0.766405 13.0909C1.18793 13.0909 1.53281 12.7227 1.53281 12.2727V2.45455C1.53281 2.00455 1.87769 1.63636 2.29921 1.63636H9.96326C10.3848 1.63636 10.7297 1.26818 10.7297 0.818182C10.7297 0.368182 10.3848 0 9.96326 0ZM13.0289 3.27273H4.59843C3.75538 3.27273 3.06562 4.00909 3.06562 4.90909V16.3636C3.06562 17.2636 3.75538 18 4.59843 18H13.0289C13.8719 18 14.5617 17.2636 14.5617 16.3636V4.90909C14.5617 4.00909 13.8719 3.27273 13.0289 3.27273ZM12.2625 16.3636H5.36483C4.94331 16.3636 4.59843 15.9955 4.59843 15.5455V5.72727C4.59843 5.27727 4.94331 4.90909 5.36483 4.90909H12.2625C12.684 4.90909 13.0289 5.27727 13.0289 5.72727V15.5455C13.0289 15.9955 12.684 16.3636 12.2625 16.3636Z" fill="#10036C"/>
</svg>
