<svg width="18" height="18" viewBox="0 0 18 18" fill="none" xmlns="http://www.w3.org/2000/svg">
    <path
        d="M9 6.29987C8.28397 6.29987 7.59715 6.58438 7.09081 7.09063C6.58457 7.597 6.30005 8.28379 6.30005 8.99982C6.30005 9.71585 6.58456 10.4027 7.09081 10.909C7.59718 11.4153 8.28397 11.6998 9 11.6998C9.71604 11.6998 10.4029 11.4153 10.9092 10.909C11.4154 10.4026 11.7 9.71585 11.7 8.99982C11.699 8.28401 11.4141 7.598 10.9079 7.09188C10.4018 6.58577 9.71578 6.30089 9 6.29987ZM9 10.6998C8.54914 10.6998 8.11673 10.5207 7.79794 10.2019C7.47916 9.88309 7.3 9.45068 7.3 8.99982C7.3 8.54896 7.47916 8.11655 7.79794 7.79776C8.11673 7.47897 8.54914 7.29981 9 7.29981C9.45086 7.29981 9.88327 7.47898 10.2021 7.79776C10.5208 8.11655 10.7 8.54896 10.7 8.99982C10.6994 9.45055 10.5202 9.88261 10.2014 10.2013C9.88276 10.5201 9.45074 10.6992 8.99997 10.6999L9 10.6998Z"
        fill="#00AF66" />
    <path
        d="M17.5 8.50003H14.978C14.8596 7.08677 14.2445 5.76128 13.2417 4.75835C12.2388 3.75554 10.9133 3.14043 9.49997 3.02202V0.499971C9.49997 0.32143 9.40467 0.156337 9.24999 0.0670457C9.0953 -0.0223486 8.90471 -0.0223486 8.75001 0.0670457C8.59533 0.156315 8.50003 0.321423 8.50003 0.499971V3.02202C7.08677 3.14042 5.76128 3.7555 4.75835 4.75835C3.75554 5.76115 3.14043 7.08667 3.02202 8.50003H0.499971C0.32143 8.50003 0.156337 8.59533 0.0670457 8.75001C-0.0223486 8.9047 -0.0223486 9.09529 0.0670457 9.24999C0.156315 9.40467 0.321423 9.49997 0.499971 9.49997H3.02202C3.14042 10.9132 3.75551 12.2387 4.75835 13.2417C5.76115 14.2445 7.08667 14.8596 8.50003 14.978V17.5C8.50003 17.6786 8.59533 17.8437 8.75001 17.933C8.9047 18.0223 9.09529 18.0223 9.24999 17.933C9.40467 17.8437 9.49997 17.6786 9.49997 17.5V14.978C10.9132 14.8596 12.2387 14.2445 13.2417 13.2417C14.2445 12.2388 14.8596 10.9133 14.978 9.49997H17.5C17.6786 9.49997 17.8437 9.40467 17.933 9.24999C18.0224 9.0953 18.0224 8.90471 17.933 8.75001C17.8437 8.59533 17.6786 8.50003 17.5 8.50003ZM9.50013 13.9739V13.1999C9.50013 13.0213 9.40483 12.8562 9.25015 12.7669C9.09546 12.6776 8.90488 12.6776 8.75017 12.7669C8.59549 12.8562 8.50019 13.0213 8.50019 13.1999V13.9739C7.35287 13.8584 6.28086 13.3499 5.46551 12.5346C4.65028 11.7193 4.14176 10.6473 4.02627 9.49995H4.8002C4.97886 9.49995 5.14396 9.40465 5.23325 9.24997C5.32252 9.09528 5.32252 8.9047 5.23325 8.75C5.14398 8.59531 4.97887 8.50001 4.8002 8.50001H4.02627C4.14179 7.35269 4.65028 6.28068 5.46551 5.46533C6.28086 4.6501 7.35287 4.14158 8.50019 4.02609V4.80001C8.50019 4.97868 8.59549 5.14378 8.75017 5.23307C8.90486 5.32234 9.09545 5.32234 9.25015 5.23307C9.40483 5.1438 9.50013 4.97869 9.50013 4.80001V4.02609C10.6474 4.14161 11.7195 4.6501 12.5348 5.46533C13.35 6.28068 13.8586 7.35269 13.9741 8.50001H13.2001C13.0215 8.50001 12.8564 8.59531 12.7671 8.75C12.6778 8.90468 12.6778 9.09527 12.7671 9.24997C12.8563 9.40465 13.0215 9.49995 13.2001 9.49995H13.9741C13.8585 10.6473 13.35 11.7193 12.5348 12.5346C11.7195 13.3499 10.6474 13.8584 9.50013 13.9739Z"
        fill="#00AF66" />
</svg>
