<svg width="23" height="20" viewBox="0 0 23 20" fill="none" xmlns="http://www.w3.org/2000/svg">
<path d="M20 2.96296H17.7778V0.740741C17.7778 0.331348 17.4464 0 17.037 0C16.6276 0 16.2963 0.331348 16.2963 0.740741V2.96296H5.92593V0.740741C5.92593 0.331348 5.59458 0 5.18518 0C4.77579 0 4.44444 0.331348 4.44444 0.740741V2.96296H2.22222C0.996868 2.96296 0 3.95983 0 5.18518V17.7778C0 19.0031 0.996868 20 2.22222 20H20C21.2254 20 22.2222 19.0031 22.2222 17.7778V5.18518C22.2222 3.95983 21.2254 2.96296 20 2.96296ZM2.22222 4.44444H4.44444V5.18518C4.44444 5.59458 4.77579 5.92593 5.18518 5.92593C5.59458 5.92593 5.92593 5.59458 5.92593 5.18518V4.44444H16.2963V5.18518C16.2963 5.59458 16.6276 5.92593 17.037 5.92593C17.4464 5.92593 17.7778 5.59458 17.7778 5.18518V4.44444H20C20.4087 4.44444 20.7407 4.77646 20.7407 5.18518V6.66667H1.48148V5.18518C1.48148 4.77646 1.81349 4.44444 2.22222 4.44444ZM20 18.5185H2.22222C1.81349 18.5185 1.48148 18.1865 1.48148 17.7778V8.14815H20.7407V17.7778C20.7407 18.1865 20.4087 18.5185 20 18.5185Z" fill="#10036C"/>
<path d="M14.2569 9.14204L9.59324 14.472L7.93089 12.8096C7.64154 12.5203 7.1728 12.5203 6.88344 12.8096C6.59409 13.099 6.59409 13.5677 6.88344 13.8571L9.10566 16.0793C9.24472 16.2184 9.43338 16.2964 9.62947 16.2964C9.63741 16.2964 9.64617 16.2964 9.65411 16.2957C9.8588 16.2893 10.0519 16.198 10.1872 16.0433L15.3724 10.1173C15.6416 9.80996 15.6103 9.34189 15.3023 9.07205C14.9956 8.8022 14.5268 8.83329 14.257 9.14215L14.2569 9.14204Z" fill="#10036C"/>
</svg>
