<svg width="59" height="24" viewBox="0 0 59 24" fill="none" xmlns="http://www.w3.org/2000/svg">
<rect width="59" height="24" rx="5" fill="#00AF66"/>
<path d="M19.052 14.9645C19.0229 14.8615 18.967 14.7681 18.89 14.6937C18.8131 14.6193 18.7177 14.5667 18.6138 14.5412C17.5842 14.2669 16.6047 13.8311 15.7117 13.2499C15.5328 13.1373 15.3082 13.126 15.119 13.2203C14.5099 13.5236 14.0321 14.0382 13.7748 14.6682C12.9304 14.1 12.1441 13.4497 11.4273 12.7271C10.7054 12.0102 10.0559 11.2239 9.48832 10.3796C9.83345 10.24 10.1467 10.0319 10.4091 9.76781C10.6235 9.55434 10.8022 9.30777 10.9383 9.0375C11.0299 8.84822 11.0179 8.6252 10.9066 8.44688C10.3245 7.55281 9.88871 6.5717 9.61532 5.54044C9.59009 5.43659 9.53745 5.34143 9.46308 5.26477C9.38861 5.18804 9.29496 5.13266 9.19196 5.10441C8.28541 4.84945 7.31141 5.06821 6.60099 5.68652C5.85595 6.56706 5.80512 8.00649 6.44015 9.74014C7.03286 11.3298 8.17385 13.0191 9.65141 14.4987C11.1289 15.9784 12.8244 17.1173 14.4143 17.7163C15.1113 17.9919 15.8517 18.1417 16.601 18.1587C17.2738 18.1873 17.9347 17.9741 18.4638 17.5575V17.5448C18.7546 17.2099 18.96 16.8098 19.0628 16.3784C19.18 15.9139 19.1764 15.4271 19.0522 14.9644L19.052 14.9645Z" fill="white"/>
<path d="M28.516 11.812C28.516 10.996 28.7 10.264 29.068 9.616C29.436 8.96 29.936 8.448 30.568 8.08C31.208 7.712 31.916 7.528 32.692 7.528C33.604 7.528 34.4 7.748 35.08 8.188C35.76 8.628 36.256 9.252 36.568 10.06H35.26C35.028 9.556 34.692 9.168 34.252 8.896C33.82 8.624 33.3 8.488 32.692 8.488C32.108 8.488 31.584 8.624 31.12 8.896C30.656 9.168 30.292 9.556 30.028 10.06C29.764 10.556 29.632 11.14 29.632 11.812C29.632 12.476 29.764 13.06 30.028 13.564C30.292 14.06 30.656 14.444 31.12 14.716C31.584 14.988 32.108 15.124 32.692 15.124C33.3 15.124 33.82 14.992 34.252 14.728C34.692 14.456 35.028 14.068 35.26 13.564H36.568C36.256 14.364 35.76 14.984 35.08 15.424C34.4 15.856 33.604 16.072 32.692 16.072C31.916 16.072 31.208 15.892 30.568 15.532C29.936 15.164 29.436 14.656 29.068 14.008C28.7 13.36 28.516 12.628 28.516 11.812ZM37.7855 12.688C37.7855 12.016 37.9215 11.428 38.1935 10.924C38.4655 10.412 38.8375 10.016 39.3095 9.736C39.7895 9.456 40.3215 9.316 40.9055 9.316C41.4815 9.316 41.9815 9.44 42.4055 9.688C42.8295 9.936 43.1455 10.248 43.3535 10.624V9.424H44.4575V16H43.3535V14.776C43.1375 15.16 42.8135 15.48 42.3815 15.736C41.9575 15.984 41.4615 16.108 40.8935 16.108C40.3095 16.108 39.7815 15.964 39.3095 15.676C38.8375 15.388 38.4655 14.984 38.1935 14.464C37.9215 13.944 37.7855 13.352 37.7855 12.688ZM43.3535 12.7C43.3535 12.204 43.2535 11.772 43.0535 11.404C42.8535 11.036 42.5815 10.756 42.2375 10.564C41.9015 10.364 41.5295 10.264 41.1215 10.264C40.7135 10.264 40.3415 10.36 40.0055 10.552C39.6695 10.744 39.4015 11.024 39.2015 11.392C39.0015 11.76 38.9015 12.192 38.9015 12.688C38.9015 13.192 39.0015 13.632 39.2015 14.008C39.4015 14.376 39.6695 14.66 40.0055 14.86C40.3415 15.052 40.7135 15.148 41.1215 15.148C41.5295 15.148 41.9015 15.052 42.2375 14.86C42.5815 14.66 42.8535 14.376 43.0535 14.008C43.2535 13.632 43.3535 13.196 43.3535 12.7ZM47.3949 7.12V16H46.3029V7.12H47.3949ZM50.348 7.12V16H49.256V7.12H50.348Z" fill="white"/>
</svg>
