<svg width="19" height="13" viewBox="0 0 19 13" fill="none" xmlns="http://www.w3.org/2000/svg">
<path d="M17.9459 6.07949C17.4486 6.07949 17.0593 6.36978 17.0593 6.74087V11.2897H1.77303V6.72474C1.77303 6.35377 1.38392 6.06335 0.886515 6.06335C0.389262 6.06335 0 6.35365 0 6.72474V11.9511C0 12.3221 0.389108 12.6125 0.886515 12.6125H17.9458C18.443 12.6125 18.8323 12.3222 18.8323 11.9511V6.72474C18.8323 6.36987 18.443 6.07946 17.9458 6.07946L17.9459 6.07949Z" fill="#868686"/>
<path d="M10.0097 0.869305C9.98812 0.853215 9.9664 0.837012 9.92327 0.820922C9.9017 0.820922 9.9017 0.804832 9.85841 0.788629C9.72871 0.707952 9.55572 0.675659 9.38274 0.675659C9.27461 0.675659 9.1449 0.691749 9.03677 0.724043C8.92863 0.756336 8.82049 0.804719 8.73408 0.853103L4.4098 4.11151C4.23681 4.24057 4.15039 4.41802 4.15039 4.59546C4.15039 4.7729 4.25853 4.91805 4.4098 5.03102C4.58279 5.16008 4.77734 5.22455 5.03674 5.22455C5.29614 5.22455 5.51241 5.16008 5.66369 5.03102L8.4745 2.91792V9.6283C8.4745 9.99928 8.86361 10.2897 9.36102 10.2897C9.85827 10.2897 10.2475 9.9994 10.2475 9.6283L10.2477 2.91792L13.1233 5.03102C13.2963 5.16008 13.4909 5.22455 13.7503 5.22455C14.0097 5.22455 14.2259 5.16008 14.3772 5.03102C14.5502 4.90196 14.6366 4.72451 14.6366 4.54707C14.6366 4.36962 14.5285 4.22448 14.3772 4.11151L10.0097 0.869305Z" fill="#868686"/>
</svg>
