<svg width="24" height="20" viewBox="0 0 24 20" fill="none" xmlns="http://www.w3.org/2000/svg">
<path d="M0.720345 3.67187H1.87163C2.1944 4.95196 3.35205 5.90388 4.73123 5.90388C6.11 5.90388 7.26803 4.95216 7.59062 3.67187H22.3222C22.7199 3.67187 23.042 3.3495 23.042 2.95204C23.042 2.55437 22.7197 2.23221 22.3222 2.23221L7.59011 2.23201C7.26754 0.951921 6.10969 0 4.73072 0C3.35154 0 2.19391 0.951716 1.87112 2.23201H0.719834C0.322166 2.23201 9.26933e-08 2.55438 9.26933e-08 2.95184C-0.000199628 3.34931 0.322371 3.67188 0.720039 3.67188L0.720345 3.67187ZM4.73082 1.44007C5.56452 1.44007 6.24258 2.11818 6.24258 2.95184C6.24258 3.78549 5.56447 4.4638 4.73082 4.4638C3.89752 4.4638 3.21941 3.7859 3.21905 2.9526V2.952V2.9514C3.21945 2.1179 3.89757 1.44 4.73082 1.44V1.44007ZM22.3222 9.28011H21.429C21.1064 7.99982 19.9486 7.04811 18.5696 7.04811C17.1904 7.04811 16.0328 7.99982 15.71 9.28011H0.720703C0.323035 9.28011 0.000869246 9.60248 0.000869246 9.99995C0.000869246 10.3976 0.32324 10.7198 0.720703 10.7198H15.71C16.0326 11.9999 17.1904 12.9518 18.5696 12.9518C19.9488 12.9518 21.1064 12.0001 21.429 10.7198H22.3222C22.7199 10.7198 23.042 10.3974 23.042 9.99995C23.042 9.60228 22.7199 9.28011 22.3222 9.28011ZM18.5698 11.5118C17.7365 11.5118 17.0584 10.8339 17.058 10.0006V9.99996V9.99936C17.0582 9.16607 17.7366 8.48796 18.5698 8.48796C19.4035 8.48796 20.0816 9.16607 20.0816 9.99992C20.0814 10.8338 19.403 11.5117 18.5698 11.5117V11.5118ZM22.3222 16.3283H9.09441C8.77184 15.0482 7.61399 14.0963 6.23481 14.0963C4.85604 14.0963 3.69801 15.048 3.37542 16.3283H0.720345C0.322678 16.3283 0.00051152 16.6507 0.00051152 17.0482C0.00051152 17.4458 0.322882 17.768 0.720345 17.768H3.37562C3.69839 19.0481 4.85604 20 6.23501 20C7.61419 20 8.77182 19.0483 9.09461 17.768H22.3224C22.7201 17.768 23.0422 17.4456 23.0422 17.0482C23.0424 16.6507 22.7199 16.3283 22.3222 16.3283ZM6.23512 18.56C5.40141 18.56 4.72335 17.8819 4.72335 17.048C4.72335 16.2143 5.40146 15.5362 6.23512 15.5362C7.06882 15.5362 7.74708 16.2144 7.74708 17.048C7.74708 17.8819 7.06897 18.56 6.23512 18.56Z" fill="#10036C"/>
</svg>
