<svg width="20" height="20" viewBox="0 0 20 20" fill="none" xmlns="http://www.w3.org/2000/svg">
<path d="M12.9642 0H6.81694C6.62064 0 6.43235 0.0819902 6.29364 0.227886C6.15476 0.373627 6.07686 0.571434 6.07686 0.777641V0.889403H5.14729C4.73509 0.890027 4.33984 1.06227 4.04843 1.36857C3.75687 1.67471 3.59293 2.08995 3.59232 2.52298V4.28609H1.34832C0.978427 4.28609 0.625001 4.44571 0.370397 4.72751C0.115793 5.00931 -0.017454 5.38856 0.00183788 5.77654L0.214607 9.99996C0.226477 10.2335 0.311347 10.4562 0.455864 10.6339C0.60038 10.8116 0.796679 10.9344 1.01434 10.9832V18.2525C1.01493 18.7157 1.19031 19.1598 1.5022 19.4875C1.81393 19.815 2.2368 19.9994 2.67775 20H17.1035C17.5445 19.9994 17.9674 19.815 18.2791 19.4875C18.591 19.1598 18.7664 18.7157 18.767 18.2525V10.9832C18.9846 10.9344 19.1809 10.8116 19.3254 10.6339C19.47 10.4562 19.5548 10.2335 19.5667 9.99996L19.7795 5.77654C19.7988 5.38857 19.6655 5.00931 19.4109 4.72751C19.1563 4.44571 18.8029 4.28609 18.433 4.28609H16.189V2.52298C16.1884 2.08995 16.0244 1.67471 15.7329 1.36857C15.4415 1.06227 15.0462 0.890042 14.634 0.889403H13.7044V0.777641C13.7044 0.571418 13.6265 0.373615 13.4877 0.227886C13.3489 0.0819902 13.1606 0 12.9644 0H12.9642ZM15.5507 2.523V4.28611H15.0465V2.62575C15.0465 2.3221 14.8124 2.07615 14.5234 2.07615H13.7044V1.55988H14.6339C14.8771 1.55988 15.1104 1.66135 15.2822 1.84201C15.4541 2.02251 15.5507 2.26754 15.5507 2.52301L15.5507 2.523ZM19.1434 5.74088L18.9306 9.96429C18.9205 10.1739 18.7561 10.3387 18.5563 10.3396H14.6128C14.0926 9.02984 13.0995 7.98998 11.851 7.44785C10.6024 6.90588 9.20029 6.90588 7.95158 7.44785C6.70287 7.98998 5.70979 9.02984 5.1896 10.3396H1.22677C1.02691 10.3387 0.862664 10.1739 0.852424 9.96429L0.639655 5.74088H0.639803C0.630011 5.53637 0.700786 5.33669 0.835506 5.18893C0.97023 5.04272 1.15659 4.96182 1.35022 4.9654H18.4326C18.6262 4.96182 18.8126 5.04272 18.9475 5.18893C19.0822 5.3367 19.153 5.53637 19.1432 5.74088H19.1434ZM17.1034 19.3297H2.6776C2.40563 19.3297 2.1448 19.2162 1.95264 19.0142C1.76035 18.8122 1.65234 18.5382 1.65234 18.2526V11.0101H4.97055C4.58953 12.5016 4.83909 14.0935 5.65543 15.378C6.47162 16.6624 7.77537 17.5148 9.23288 17.717C10.6902 17.9192 12.1599 17.4515 13.2656 16.4337C14.3713 15.4158 15.0056 13.9467 15.0062 12.4022C15.0065 11.9319 14.947 11.4638 14.8296 11.0101H18.1287V18.2526C18.1287 18.5382 18.0206 18.8122 17.8284 19.0142C17.6362 19.2162 17.3754 19.3297 17.1034 19.3297H17.1034ZM9.90094 7.70973H9.90109C11.0857 7.70973 12.222 8.20402 13.0597 9.08406C13.8972 9.96414 14.3678 11.1578 14.3678 12.4023C14.3678 13.6469 13.8972 14.8405 13.0597 15.7205C12.2219 16.6006 11.0857 17.095 9.90109 17.095C8.71634 17.095 7.58021 16.6006 6.74252 15.7205C5.9048 14.8405 5.43418 13.6469 5.43418 12.4023C5.43418 11.1578 5.90483 9.9641 6.74252 9.08406C7.58025 8.20398 8.71634 7.70973 9.90109 7.70973H9.90094ZM4.23037 2.52304C4.23037 2.26756 4.32696 2.02252 4.49892 1.84204C4.67074 1.66138 4.90398 1.55991 5.14715 1.55991H6.07672V2.08285H5.30459C5.01972 2.08518 4.789 2.32648 4.78558 2.62574V4.27939H4.23258L4.23037 2.52304ZM6.81682 0.670463H12.9641C12.9911 0.670463 13.0171 0.681842 13.0362 0.70195C13.0553 0.722058 13.0662 0.749336 13.0662 0.777703V2.48048C13.0662 2.509 13.0553 2.53628 13.0362 2.55639C13.0171 2.57649 12.9911 2.58772 12.9641 2.58772H6.81682C6.76044 2.58772 6.71474 2.53971 6.71474 2.48048V0.777702C6.71474 0.718468 6.76044 0.67046 6.81682 0.67046V0.670463ZM14.4082 2.75308V4.28595L5.42358 4.2861V2.75308H6.12552C6.17834 2.90116 6.27271 3.02882 6.39616 3.11892C6.51975 3.20917 6.66649 3.2578 6.81678 3.25811H12.9641C13.1144 3.2578 13.2611 3.20917 13.3847 3.11892C13.5081 3.02882 13.6025 2.90116 13.6553 2.75308L14.4082 2.75308Z" fill="#10036C"/>
<path d="M10.7416 9.02593H9.03985H9.04C8.86373 9.02593 8.72085 9.17588 8.72085 9.36106V11.1778H7.00638C6.83026 11.1778 6.68738 11.3279 6.68738 11.5129V13.3006C6.68738 13.4858 6.83026 13.6359 7.00638 13.6359H8.73566V15.4526H8.73581C8.73581 15.6376 8.87854 15.7877 9.05481 15.7877H10.7565C10.9326 15.7877 11.0755 15.6376 11.0755 15.4526V13.6268H12.8027C12.979 13.6268 13.1217 13.4769 13.1217 13.2917V11.504C13.1217 11.3188 12.979 11.1689 12.8027 11.1689H11.0691V9.36101C11.0691 9.27061 11.0344 9.18394 10.9727 9.12081C10.911 9.05768 10.8277 9.02339 10.7415 9.02588L10.7416 9.02593ZM10.7416 11.8482H12.4688V12.9655H10.7416C10.5654 12.9655 10.4225 13.1156 10.4225 13.3006V15.1173H9.35901V13.2917C9.35901 13.1066 9.21613 12.9566 9.04001 12.9566H7.32554V11.8393H9.05482C9.23109 11.8393 9.37382 11.6892 9.37382 11.504V9.69618H10.4374V11.5129C10.4372 11.6921 10.5712 11.8397 10.7415 11.8482L10.7416 11.8482Z" fill="#10036C"/>
</svg>
