<svg width="41" height="41" viewBox="0 0 41 41" fill="none" xmlns="http://www.w3.org/2000/svg">
<ellipse cx="20.3322" cy="20.5139" rx="19.7858" ry="19.5305" fill="white"/>
<path d="M24.7858 7.94922H16.5953C16.3337 7.94922 16.0829 8.0532 15.898 8.23824C15.713 8.42308 15.6092 8.67395 15.6092 8.93548V9.07723H14.3707C13.8214 9.07802 13.2948 9.29647 12.9065 9.68494C12.5181 10.0732 12.2996 10.5998 12.2988 11.1491V13.3852H9.30894C8.8161 13.3852 8.3452 13.5876 8.00596 13.945C7.66673 14.3024 7.4892 14.7834 7.5149 15.2755L7.79839 20.6319C7.81421 20.9281 7.92729 21.2106 8.11984 21.4359C8.31239 21.6613 8.57394 21.8171 8.86394 21.879V31.0984C8.86473 31.6859 9.0984 32.2492 9.51397 32.6647C9.92931 33.0801 10.4927 33.3139 11.0803 33.3147H30.3011C30.8886 33.3139 31.452 33.0801 31.8674 32.6647C32.2829 32.2492 32.5166 31.6859 32.5174 31.0984V21.879C32.8074 21.8171 33.0689 21.6613 33.2615 21.4359C33.454 21.2106 33.5671 20.9281 33.5829 20.6319L33.8664 15.2755C33.8921 14.7834 33.7146 14.3024 33.3753 13.945C33.0361 13.5876 32.5652 13.3852 32.0724 13.3852H29.0825V11.1491C29.0817 10.5998 28.8633 10.0732 28.4748 9.68494C28.0865 9.29648 27.5599 9.07804 27.0107 9.07723H25.7721V8.93548C25.7721 8.67393 25.6683 8.42307 25.4833 8.23824C25.2984 8.0532 25.0476 7.94922 24.786 7.94922H24.7858ZM28.232 11.1491V13.3852H27.5603V11.2794C27.5603 10.8943 27.2483 10.5824 26.8632 10.5824H25.772V9.92757H27.0106C27.3346 9.92757 27.6453 10.0563 27.8742 10.2854C28.1034 10.5143 28.2321 10.8251 28.2321 11.1491L28.232 11.1491ZM33.0189 15.2302L32.7354 20.5867C32.722 20.8526 32.5029 21.0615 32.2366 21.0627H26.9824C26.2893 19.4015 24.9661 18.0827 23.3026 17.3951C21.639 16.7078 19.7708 16.7078 18.1071 17.3951C16.4433 18.0827 15.1201 19.4015 14.427 21.0627H9.14699C8.8807 21.0615 8.66186 20.8526 8.64821 20.5867L8.36472 15.2302H8.36492C8.35187 14.9709 8.44617 14.7176 8.62567 14.5302C8.80518 14.3448 9.05347 14.2422 9.31147 14.2467H32.0719C32.3298 14.2422 32.5781 14.3448 32.7579 14.5302C32.9374 14.7176 33.0317 14.9709 33.0186 15.2302H33.0189ZM30.3008 32.4646H11.0801C10.7177 32.4646 10.3702 32.3207 10.1141 32.0645C9.85792 31.8083 9.71401 31.4607 9.71401 31.0986V21.913H14.1352C13.6275 23.8048 13.96 25.8236 15.0477 27.4527C16.1352 29.0817 17.8723 30.1629 19.8142 30.4192C21.756 30.6757 23.7141 30.0826 25.1874 28.7917C26.6606 27.5007 27.5058 25.6375 27.5065 23.6786C27.5069 23.0822 27.4276 22.4885 27.2713 21.913H31.6669V31.0986C31.6669 31.4607 31.523 31.8083 31.2668 32.0645C31.0108 32.3207 30.6632 32.4646 30.3009 32.4646H30.3008ZM20.7044 17.7273H20.7046C22.283 17.7273 23.7969 18.3542 24.913 19.4703C26.029 20.5865 26.656 22.1004 26.656 23.6787C26.656 25.2573 26.0289 26.7711 24.913 27.8872C23.7968 29.0034 22.2829 29.6304 20.7046 29.6304C19.126 29.6304 17.6123 29.0033 16.4961 27.8872C15.3799 26.771 14.7529 25.2573 14.7529 23.6787C14.7529 22.1004 15.38 20.5864 16.4961 19.4703C17.6123 18.3541 19.126 17.7273 20.7046 17.7273H20.7044ZM13.149 11.1491C13.149 10.8251 13.2776 10.5143 13.5068 10.2854C13.7357 10.0563 14.0465 9.92761 14.3705 9.92761H15.609V10.5908H14.5802C14.2007 10.5938 13.8933 10.8998 13.8887 11.2794V13.3767H13.1519L13.149 11.1491ZM16.5951 8.79955H24.7857C24.8217 8.79955 24.8563 8.81398 24.8818 8.83948C24.9073 8.86499 24.9217 8.89958 24.9217 8.93556V11.0951C24.9217 11.1313 24.9073 11.1659 24.8818 11.1914C24.8563 11.2169 24.8217 11.2312 24.7857 11.2312H16.5951C16.52 11.2312 16.4591 11.1703 16.4591 11.0951V8.93556C16.4591 8.86043 16.52 8.79955 16.5951 8.79955V8.79955ZM26.7098 11.4409V13.385L14.7388 13.3852V11.4409H15.674C15.7444 11.6287 15.8701 11.7906 16.0346 11.9049C16.1993 12.0193 16.3948 12.081 16.5951 12.0814H24.7856C24.9859 12.081 25.1814 12.0193 25.3461 11.9049C25.5106 11.7906 25.6363 11.6287 25.7067 11.4409L26.7098 11.4409Z" fill="#ED5B6E"/>
<path d="M21.8243 19.3962H19.557H19.5572C19.3224 19.3962 19.132 19.5864 19.132 19.8212V22.1253H16.8476C16.613 22.1253 16.4226 22.3157 16.4226 22.5504V24.8177C16.4226 25.0525 16.613 25.2429 16.8476 25.2429H19.1517V27.547H19.1519C19.1519 27.7817 19.3421 27.972 19.577 27.972H21.8443C22.0789 27.972 22.2693 27.7817 22.2693 27.547V25.2314H24.5707C24.8055 25.2314 24.9957 25.0413 24.9957 24.8064V22.5391C24.9957 22.3042 24.8055 22.114 24.5707 22.114H22.2608V19.8212C22.2608 19.7065 22.2146 19.5966 22.1323 19.5166C22.0501 19.4365 21.9392 19.393 21.8243 19.3962L21.8243 19.3962ZM21.8243 22.9756H24.1257V24.3927H21.8243C21.5897 24.3927 21.3993 24.5831 21.3993 24.8177V27.1218H19.9823V24.8064C19.9823 24.5716 19.7919 24.3814 19.5572 24.3814H17.2729V22.9643H19.577C19.8118 22.9643 20.002 22.774 20.002 22.5391V20.2463H21.4191V22.5504C21.4189 22.7777 21.5974 22.9649 21.8243 22.9756L21.8243 22.9756Z" fill="#ED5B6E"/>
</svg>
