<svg width="29" height="21" viewBox="0 0 29 21" fill="none" xmlns="http://www.w3.org/2000/svg">
<path d="M6.18157 12.6605C2.84448 13.5413 0.743412 15.6745 0.0620649 18.6707C-0.136193 19.528 0.171031 19.7782 0.552579 19.8966C3.17548 20.7109 8.03009 21.0001 9.93526 21.0001C11.8404 21.0001 16.695 20.7109 19.3179 19.8966C19.6995 19.7782 20.0067 19.528 19.8084 18.6707C19.1271 15.6747 17.0257 13.5414 13.6889 12.6605L10.2395 15.5729C10.0638 15.7212 9.80794 15.7212 9.63227 15.5729L6.18157 12.6605Z" fill="#10036C"/>
<path fill-rule="evenodd" clip-rule="evenodd" d="M9.93495 0C7.03273 0 4.69629 2.38016 4.69629 5.33663V5.69743C4.69629 8.65387 7.03273 11.0341 9.93495 11.0341C12.8372 11.0341 15.1736 8.65387 15.1736 5.69743V5.33663C15.1736 2.38016 12.8372 0 9.93495 0Z" fill="#10036C"/>
<path fill-rule="evenodd" clip-rule="evenodd" d="M23.0522 3.80933C22.3904 3.80926 21.7352 3.94059 21.1238 4.1958C20.5124 4.45102 19.9569 4.82512 19.4889 5.29675C19.021 5.76839 18.6497 6.32831 18.3965 6.94456C18.1432 7.5608 18.0128 8.2213 18.0128 8.88833C18.0132 9.01245 18.0181 9.13652 18.0275 9.26028L16.541 10.524V11.3032H18.6243C19.0559 12.1081 19.6951 12.7805 20.4745 13.2495C21.2539 13.7184 22.1445 13.9664 23.0522 13.9673C24.3885 13.9673 25.6701 13.4322 26.615 12.4797C27.5599 11.5272 28.0908 10.2354 28.0909 8.88833C28.0908 7.54132 27.5599 6.24949 26.615 5.297C25.6701 4.34452 24.3885 3.80939 23.0522 3.80933ZM23.0522 5.94166C23.5216 5.94166 23.902 6.32513 23.902 6.79826C23.902 7.27139 23.5216 7.65486 23.0522 7.65486C22.5828 7.65486 22.2024 7.27139 22.2024 6.79826C22.2024 6.32513 22.5828 5.94166 23.0522 5.94166ZM21.8229 8.21419H23.2849C23.5447 8.21419 23.7538 8.42503 23.7538 8.68686V10.6656H24.2808V11.835H21.8229V10.6656H22.3498V9.11305L21.8229 8.87636V8.21419Z" fill="#10036C"/>
</svg>
