<svg width="21" height="21" viewBox="0 0 21 21" fill="none" xmlns="http://www.w3.org/2000/svg">
<path d="M21 16.5851C21 16.8536 20.9503 17.204 20.8509 17.6366C20.7514 18.0692 20.647 18.4097 20.5377 18.6583C20.329 19.1555 19.7224 19.6825 18.7181 20.2393C17.7835 20.7464 16.8588 21 15.944 21C15.6755 21 15.4144 20.9826 15.161 20.9479C14.9074 20.913 14.6216 20.8509 14.3033 20.7614C13.9852 20.6719 13.7491 20.5998 13.5949 20.5452C13.4408 20.4905 13.1648 20.3886 12.7672 20.2395C12.3695 20.0903 12.1258 20.0008 12.0364 19.9709C11.062 19.6229 10.1918 19.2103 9.42629 18.733C8.15362 17.9476 6.83865 16.8762 5.4813 15.5189C4.12399 14.1614 3.05258 12.8464 2.267 11.5739C1.78973 10.8082 1.37712 9.93823 1.02905 8.96379C0.999167 8.87429 0.909665 8.63069 0.760543 8.233C0.611421 7.8353 0.50947 7.55931 0.454832 7.40522C0.400195 7.25112 0.328124 7.015 0.238623 6.69681C0.149122 6.37863 0.0870111 6.09273 0.0521474 5.83915C0.0174308 5.58559 0 5.32454 0 5.05604C0 4.14123 0.253563 3.21649 0.760686 2.28191C1.31748 1.27763 1.84451 0.671181 2.34168 0.462306C2.59012 0.353028 2.93069 0.248587 3.36325 0.149122C3.79581 0.0496611 4.14621 0 4.41471 0C4.55387 0 4.65832 0.0149415 4.7279 0.0446774C4.9069 0.104295 5.17043 0.482226 5.51832 1.17819C5.62774 1.36715 5.77686 1.6355 5.96584 1.98357C6.15481 2.33162 6.32883 2.64728 6.48792 2.93059C6.647 3.21404 6.8011 3.47989 6.95022 3.72848C6.9801 3.76818 7.06711 3.89254 7.21125 4.10128C7.35539 4.31002 7.46232 4.48652 7.5319 4.63082C7.60148 4.77496 7.63635 4.91675 7.63635 5.05592C7.63635 5.25484 7.4947 5.50344 7.21125 5.80168C6.9278 6.09992 6.61961 6.3734 6.2865 6.62199C5.9534 6.87057 5.64518 7.13408 5.36175 7.41241C5.07831 7.69073 4.93665 7.91952 4.93665 8.09855C4.93665 8.18805 4.96156 8.29996 5.01122 8.43414C5.06087 8.56832 5.10321 8.67027 5.13792 8.73985C5.17279 8.80943 5.24237 8.92881 5.34666 9.09786C5.45111 9.2669 5.50824 9.36138 5.5182 9.3813C6.27389 10.7435 7.1389 11.9118 8.1133 12.8862C9.0877 13.8606 10.2561 14.7258 11.6182 15.4813C11.6382 15.4913 11.7325 15.5484 11.9017 15.6529C12.0707 15.7573 12.19 15.8269 12.2597 15.8616C12.3293 15.8965 12.4312 15.9387 12.5654 15.9883C12.6996 16.0381 12.8115 16.0629 12.901 16.0629C13.08 16.0629 13.3086 15.9212 13.5871 15.6378C13.8656 15.3543 14.1291 15.0461 14.3775 14.713C14.6261 14.3799 14.8996 14.0717 15.1979 13.7883C15.4961 13.5049 15.7447 13.3632 15.9436 13.3632C16.0828 13.3632 16.2246 13.398 16.3687 13.4676C16.5129 13.5372 16.6894 13.6441 16.8983 13.7883C17.107 13.9324 17.2314 14.0194 17.2711 14.0493C17.5196 14.1984 17.7857 14.3525 18.0689 14.5116C18.3524 14.6707 18.6681 14.8447 19.016 15.0337C19.364 15.2227 19.6324 15.3718 19.8213 15.4812C20.5174 15.8293 20.8952 16.0928 20.9549 16.2716C20.9847 16.3412 20.9995 16.4457 20.9995 16.5848L21 16.5851Z" fill="#10036C"/>
</svg>
