<svg width="32" height="24" viewBox="0 0 32 24" fill="none" xmlns="http://www.w3.org/2000/svg">
<path d="M30.5434 9.16963L16.7392 0.297879C16.1102 -0.0992929 15.2826 -0.0992929 14.6536 0.297879L0.882565 9.16963C-0.0112907 9.73236 -0.276178 10.9241 0.319834 11.818C0.882565 12.7118 2.07432 12.9767 2.96818 12.3807L5.25238 10.9241V22.0469C5.25238 23.1063 6.11302 23.9669 7.17239 23.9669H12.6344V16.2869C12.6344 15.5916 13.1971 14.9958 13.9254 14.9958H17.5669C18.2622 14.9958 18.8579 15.5586 18.8579 16.2869V24H24.3199C25.3793 24 26.2399 23.1394 26.2399 22.08L26.2397 10.9572L28.5239 12.4138C28.855 12.6124 29.2192 12.7117 29.5501 12.7117C30.1791 12.7117 30.808 12.4138 31.1722 11.8178C31.7019 10.9572 31.437 9.76547 30.5432 9.16949L30.5434 9.16963Z" fill="#10036C"/>
</svg>
