<svg width="24" height="24" viewBox="0 0 24 24" fill="none" xmlns="http://www.w3.org/2000/svg">
<path d="M23.9332 1.20344V19.7524C23.9332 19.8923 23.8564 20.0404 23.7303 20.109C23.4313 20.2681 23.1296 20.4271 22.8306 20.5835C21.5306 21.2692 20.2278 21.9576 18.9278 22.646C18.1049 23.0794 17.2849 23.5154 16.4621 23.9488C16.1905 24.0942 15.8422 23.9159 15.8422 23.5922C15.8422 23.5813 15.8422 23.5703 15.8422 23.5593C15.8367 23.3097 15.8422 23.0574 15.8422 22.8051V20.5753H8.02545C7.57839 20.5753 7.20264 20.1968 7.20264 19.7524V13.8309C7.20264 13.3701 7.58113 13.0273 8.02545 13.0081C8.46977 12.9889 8.84827 13.4003 8.84827 13.8309V18.9296H15.8422V4.25609C15.8422 4.11621 15.919 3.9681 16.0452 3.89953C16.3441 3.74046 16.6458 3.58138 16.9448 3.42504C18.0638 2.83262 19.1828 2.24293 20.3046 1.65051H8.84827V6.2281C8.84827 6.68888 8.46977 7.03172 8.02545 7.05092C7.58113 7.07012 7.20264 6.65871 7.20264 6.2281V0.827691C7.20264 0.380628 7.58113 0.00487594 8.02545 0.00487594C8.03642 0.00487594 8.04465 0.00487594 8.05562 0.00487594C8.75227 -0.00609493 9.45167 0.00487594 10.1511 0.00487594H23.5492C23.6288 0.00761866 23.7001 0.0377886 23.7632 0.0844148C23.7659 0.0871575 23.7714 0.0899001 23.7741 0.0926428C23.8153 0.122813 23.8509 0.161211 23.8784 0.21058C23.8948 0.238007 23.9085 0.27092 23.9168 0.301089C23.9168 0.303832 23.9195 0.306575 23.9195 0.309318C23.9305 0.344973 23.936 0.380628 23.936 0.416284C23.936 0.427254 23.936 0.438225 23.936 0.449196C23.9387 0.698783 23.9332 0.951113 23.9332 1.20344Z" fill="#10036C"/>
<path d="M10.4422 9.08062V11.0883C10.4422 11.3104 10.253 11.4997 10.0308 11.4997H5.77959V13.8776C5.77959 14.1601 5.41755 14.4289 5.15974 14.2342C4.95678 14.0778 4.75107 13.9215 4.54811 13.7679C3.65673 13.0877 2.76535 12.4048 1.87396 11.7246C1.31445 11.2967 0.754933 10.8689 0.195419 10.441C-0.0651396 10.2408 -0.0651396 9.93086 0.195419 9.73064C0.39838 9.5743 0.604084 9.41797 0.807045 9.26438C1.69843 8.58418 2.58981 7.90125 3.48119 7.22105C4.04071 6.79319 4.60022 6.36532 5.15974 5.93746C5.41755 5.73998 5.77959 6.00877 5.77959 6.29401V8.67195H10.0308C10.253 8.65824 10.4422 8.86394 10.4422 9.08062Z" fill="#10036C"/>
</svg>
