<svg width="24" height="23" viewBox="0 0 24 23" fill="none" xmlns="http://www.w3.org/2000/svg">
<path d="M19.2837 16.5072C19.2837 16.9008 18.9645 17.2199 18.571 17.2199C18.1775 17.2199 17.8584 16.9008 17.8584 16.5072C17.8584 16.1137 18.1775 15.7946 18.571 15.7946C18.9645 15.7946 19.2837 16.1137 19.2837 16.5072Z" fill="#10036C"/>
<path d="M21.3171 14.7035H15.8233C15.7217 14.7035 15.6387 14.7865 15.6387 14.8881V18.2727C15.6387 18.3743 15.7217 18.4573 15.8233 18.4573H18.319V17.6969C17.7691 17.5807 17.3548 17.0915 17.3548 16.5072C17.3548 15.8368 17.9004 15.2913 18.5707 15.2913C19.2411 15.2913 19.7866 15.8368 19.7866 16.5072C19.7866 17.0915 19.3724 17.5807 18.8223 17.6969V18.4573H21.3171C21.4192 18.4573 21.5028 18.3743 21.5028 18.2727V14.8881C21.5028 14.7865 21.4192 14.7035 21.3171 14.7035H21.3171Z" fill="#10036C"/>
<path d="M20.3507 12.7367C20.3507 11.7543 19.552 10.9551 18.5707 10.9551C17.5887 10.9551 16.7896 11.7543 16.7896 12.7367V14.2002H20.3507V12.7367Z" fill="#10036C"/>
<path d="M23.1345 0.00010782H5.2583V20.3626H18.1067C18.2455 20.3626 18.3584 20.4753 18.3584 20.6143C18.3584 21.2545 18.6055 21.8544 19.0549 22.3033C19.5083 22.7517 20.1088 22.9992 20.7438 22.9992C22.0619 22.9992 23.1344 21.9292 23.1344 20.6141V0L23.1345 0.00010782ZM7.64572 2.65341H21.0046C21.1434 2.65341 21.2563 2.7661 21.2563 2.90512C21.2563 3.04396 21.1436 3.15683 21.0046 3.15683H7.64572C7.50688 3.15683 7.39401 3.04414 7.39401 2.90512C7.39401 2.76628 7.50635 2.65341 7.64572 2.65341ZM7.64572 5.13875H18.0011C18.1399 5.13875 18.2528 5.25144 18.2528 5.39046C18.2528 5.5293 18.1401 5.64217 18.0011 5.64217L7.64572 5.64199C7.50688 5.64199 7.39401 5.5293 7.39401 5.39028C7.39401 5.25144 7.50635 5.13875 7.64572 5.13875V5.13875ZM7.64572 7.6239H20.7453C20.8841 7.6239 20.997 7.73659 20.997 7.87561C20.997 8.01445 20.8843 8.12732 20.7453 8.12732L7.64572 8.12715C7.50688 8.12715 7.39401 8.01446 7.39401 7.87544C7.39401 7.7366 7.50635 7.6239 7.64572 7.6239ZM7.64572 10.1096H15.8788C16.0176 10.1096 16.1305 10.2222 16.1305 10.3613C16.1305 10.5001 16.0178 10.613 15.8788 10.613L7.64572 10.6128C7.50688 10.6128 7.39401 10.5001 7.39401 10.3611C7.39401 10.2222 7.50635 10.1096 7.64572 10.1096ZM12.9787 13.0985H7.64572C7.50688 13.0985 7.39401 12.9858 7.39401 12.8468C7.39401 12.7079 7.5067 12.5951 7.64572 12.5951H12.9791C13.118 12.5951 13.2308 12.7077 13.2308 12.8468C13.2306 12.9858 13.118 13.0985 12.9789 13.0985H12.9787ZM22.0057 18.2728C22.0057 18.6523 21.6968 18.9607 21.3168 18.9607H15.823C15.4435 18.9607 15.1351 18.6521 15.1351 18.2728V14.8883C15.1351 14.5088 15.4436 14.2003 15.823 14.2003H16.286V12.7368C16.286 11.477 17.3108 10.4519 18.5704 10.4519C19.8296 10.4519 20.8536 11.477 20.8536 12.7368V14.2003H21.3167C21.6967 14.2003 22.0057 14.5089 22.0057 14.8883L22.0057 18.2728Z" fill="#10036C"/>
<path d="M18.7002 22.6607C18.2151 22.1756 17.9377 21.5445 17.8798 20.8665H0C0.127787 22.0621 1.13341 22.9999 2.36491 22.9999L19.1164 23C18.97 22.8998 18.8296 22.7885 18.7002 22.6607L18.7002 22.6607Z" fill="#10036C"/>
</svg>
