<svg width="20" height="25" viewBox="0 0 20 25" fill="none" xmlns="http://www.w3.org/2000/svg">
<path d="M14.4823 4.55376V3.90526C14.4819 2.65619 13.8843 1.48265 12.8743 0.747694C11.8644 0.0128757 10.5639 -0.194767 9.37537 0.189081C9.19516 0.162741 9.01314 0.149661 8.83112 0.150025C7.79496 0.150025 6.80143 0.561483 6.06885 1.29413C5.33622 2.02676 4.92474 3.02024 4.92474 4.0564V4.55126H1.97933L2.10177 5.44447L0 5.93933V24.9713C0 24.9789 0.00308806 24.9862 0.00835628 24.9916C0.0138061 24.9969 0.0210725 25 0.028702 25H16.3885V6.57491H16.8599L16.8598 25L18.4224 23.586C18.4224 23.5704 19.7427 23.6563 19.7427 23.6563V23.6561C19.7516 23.6634 19.7638 23.6648 19.7738 23.6597C19.784 23.6547 19.7901 23.6441 19.7896 23.6327V4.55419C19.7923 4.52822 14.4825 4.55419 14.4825 4.55419L14.4823 4.55376ZM13.6985 3.90526V4.55107L12.7401 4.55125V4.05639C12.7392 2.75445 12.0897 1.53878 11.0081 0.813958C11.7538 0.918775 12.4365 1.28919 12.9308 1.85724C13.4249 2.42511 13.6976 3.15248 13.6985 3.90525L13.6985 3.90526ZM9.45094 0.993842C10.1581 1.13681 10.7941 1.52027 11.2508 2.07907C11.7075 2.63787 11.9567 3.33744 11.9562 4.05895V4.55381H7.44562V3.9053C7.44634 3.27387 7.63817 2.65749 7.99623 2.1372C8.35409 1.61691 8.8613 1.21748 9.45094 0.991098V0.993842ZM5.70332 4.05895C5.70296 3.39733 5.91241 2.75264 6.30188 2.21765C6.69118 1.68267 7.24034 1.28519 7.87015 1.08229C7.81547 1.13443 7.76334 1.18911 7.71138 1.24379H7.7112C7.03963 1.96824 6.66741 2.92014 6.66959 3.90799V4.5538H5.70337L5.70332 4.05895ZM10.3129 19.6166H8.16169C7.86141 19.6206 7.59889 19.4146 7.53151 19.1217C7.49118 18.9368 7.53696 18.7435 7.65595 18.5964C7.77493 18.449 7.95423 18.3637 8.1435 18.364H10.2635H10.2633C10.7736 18.37 11.2699 18.1973 11.6662 17.8757C12.0624 17.5542 12.3337 17.104 12.4326 16.6036C12.546 15.9748 12.375 15.3283 11.9659 14.8379C11.5568 14.3474 10.9516 14.0631 10.3128 14.0618H7.48714V16.1817L2.73438 13.4289L7.48714 10.6763V12.7962L10.2425 12.796C11.0689 12.7882 11.8707 13.0772 12.502 13.6106C13.1334 14.1442 13.5524 14.8864 13.6828 15.7024C13.8288 16.6833 13.5409 17.6794 12.8938 18.4309C12.2466 19.1826 11.3045 19.6153 10.3128 19.6166L10.3129 19.6166Z" fill="#10036C"/>
</svg>
