<svg width="24" height="24" viewBox="0 0 24 24" fill="none" xmlns="http://www.w3.org/2000/svg">
<path d="M19.1999 14.4C17.2399 14.4 15.5519 15.5839 14.808 17.272L9.11196 14.1039C9.42392 13.4639 9.60001 12.752 9.60001 12C9.60001 10.84 9.18393 9.76806 8.48805 8.93611L13.3118 5.92001C13.9999 7.15197 15.2959 8.00001 16.7999 8.00001C19.0079 8.00001 20.7999 6.20806 20.7999 4.00001C20.7999 1.79196 19.0079 0 16.7999 0C14.5918 0 12.7999 1.79196 12.7999 4.00001C12.7999 4.11197 12.8238 4.22393 12.8318 4.33608L7.20806 7.85608L5.60001 8.8L6.76646 7.63355C6.16486 7.35926 5.50396 7.19998 4.80001 7.19998C2.15196 7.19998 0 9.35193 0 12C0 14.648 2.15196 16.8 4.80001 16.8C6.11196 16.8 7.30392 16.2719 8.1761 15.408L14.4161 18.88C14.4081 18.9839 14.4 19.088 14.4 19.2C14.4 21.848 16.552 24 19.2 24C21.8481 24 24.0001 21.848 24.0001 19.2C24.0001 16.5519 21.8481 14.4 19.2 14.4L19.1999 14.4Z" fill="#10036C"/>
</svg>
