<svg width="20" height="24" viewBox="0 0 20 24" fill="none" xmlns="http://www.w3.org/2000/svg">
<path d="M15.9074 4.04638L12.0633 0.202279C12.0127 0.15165 11.9623 0.126423 11.9116 0.101196V4.1981H16.0085C15.9833 4.14747 15.9327 4.09684 15.9074 4.04639L15.9074 4.04638Z" fill="#10036C"/>
<path d="M16.1096 14.4405V5.63963H11.1781C10.7734 5.63963 10.47 5.31081 10.47 4.93152V0H0.708115C0.303438 0 0 0.328822 0 0.708115V19.979C0 20.3836 0.328822 20.6871 0.708115 20.6871H9.53426C10.2171 22.6091 12.0632 24 14.2129 24C16.9442 24 19.195 21.7744 19.195 19.0179C19.1948 16.9697 17.9049 15.1992 16.1094 14.4404L16.1096 14.4405ZM3.9705 4.19811H7.48579C7.89047 4.19811 8.1939 4.52693 8.1939 4.90623C8.1939 5.3109 7.86508 5.61434 7.48579 5.61434H3.9705C3.56582 5.61434 3.26239 5.28552 3.26239 4.90623C3.26239 4.52677 3.59121 4.19811 3.9705 4.19811ZM3.9705 8.04203H12.1138C12.5185 8.04203 12.8219 8.37085 12.8219 8.75014C12.8219 9.15482 12.4931 9.45826 12.1138 9.45826L3.9705 9.45844C3.56582 9.45844 3.26239 9.12961 3.26239 8.75032C3.26239 8.37087 3.59121 8.04202 3.9705 8.04202V8.04203ZM3.9705 11.8861H12.1138C12.5185 11.8861 12.8219 12.2149 12.8219 12.5942C12.8219 12.9735 12.4931 13.3024 12.1138 13.3024H3.9705C3.56582 13.3024 3.26239 12.9735 3.26239 12.5942C3.26239 12.215 3.59121 11.8861 3.9705 11.8861ZM8.37098 17.1464H3.9705C3.56582 17.1464 3.26239 16.8176 3.26239 16.4383C3.26239 16.059 3.59121 15.7302 3.9705 15.7302H8.37098C8.77566 15.7302 9.07909 16.059 9.07909 16.4383C9.07909 16.8176 8.77549 17.1464 8.37098 17.1464ZM14.2129 22.5837C12.2656 22.5837 10.6724 20.9904 10.6724 19.0432C10.6724 17.0959 12.2657 15.5028 14.2129 15.5028C16.1603 15.5028 17.7534 17.0961 17.7534 19.0432C17.7534 20.9906 16.1603 22.5837 14.2129 22.5837Z" fill="#10036C"/>
<path d="M15.1739 17.6523L13.6312 19.195L13.1254 18.6892C12.8472 18.411 12.3921 18.411 12.1139 18.6892C11.8357 18.9674 11.8357 19.4226 12.1139 19.7007L13.1508 20.7377C13.3026 20.8894 13.4797 20.94 13.6566 20.94C13.8337 20.94 14.0359 20.8642 14.1623 20.7377L16.2362 18.6638C16.5144 18.3856 16.5144 17.9305 16.2362 17.6523C15.9072 17.3741 15.4521 17.3741 15.1739 17.6523H15.1739Z" fill="#10036C"/>
</svg>
