<svg width="41" height="41" viewBox="0 0 41 41" fill="none" xmlns="http://www.w3.org/2000/svg">
<ellipse cx="20.6337" cy="20.5139" rx="19.7858" ry="19.5305" fill="white"/>
<path d="M15.192 15.2139H18.4694C18.5483 15.2139 18.6104 15.152 18.6104 15.073L18.6102 11.7957C18.6102 11.7169 18.5483 11.6548 18.4692 11.6548H15.192C15.1131 11.6548 15.051 11.7167 15.051 11.7957V15.0732C15.051 15.1491 15.1129 15.214 15.192 15.214L15.192 15.2139ZM15.3329 11.9365H18.3285V14.932L15.3329 14.9322V11.9365Z" fill="#1F98B3"/>
<path d="M20.2843 22.0843C21.3045 22.0843 22.1329 21.2558 22.1329 20.2358C22.1329 19.2156 21.3043 18.3872 20.2843 18.3872C19.2642 18.3872 18.4358 19.2158 18.4358 20.2358C18.4358 21.2587 19.2642 22.0843 20.2843 22.0843Z" fill="#1F98B3"/>
<path d="M19.1201 23.1724C17.6238 23.1724 16.3977 24.3955 16.3977 25.8947V26.5344H18.7733C18.7705 26.4978 18.7676 26.4583 18.7676 26.4188C18.7676 25.5818 19.4467 24.9056 20.2808 24.9056C21.1148 24.9056 21.794 25.582 21.794 26.4188C21.794 26.4583 21.7913 26.4976 21.7883 26.5344H24.1639V25.8947C24.1639 24.3955 22.9381 23.1724 21.4415 23.1724H19.1201Z" fill="#1F98B3"/>
<path d="M20.2841 25.1567C19.588 25.1567 19.0215 25.7203 19.0215 26.4193C19.0215 27.1182 19.585 27.6819 20.2841 27.6819C20.9829 27.6819 21.5467 27.1184 21.5467 26.4193C21.5467 25.7203 20.9801 25.1567 20.2841 25.1567ZM20.9632 26.7798C20.9575 26.7856 20.952 26.7911 20.9463 26.794C20.9237 26.8137 20.8984 26.8251 20.8703 26.8335L20.5941 26.6334C20.5913 26.5827 20.6082 26.532 20.642 26.4897C20.4193 26.3686 20.1488 26.3686 19.9263 26.4897C19.9601 26.532 19.977 26.5827 19.9743 26.6334L19.6981 26.8335C19.67 26.8251 19.6446 26.8109 19.622 26.794C19.6163 26.7883 19.6108 26.7828 19.6051 26.7798C19.5206 26.6953 19.5206 26.5571 19.6051 26.4726C19.98 26.0977 20.5886 26.0977 20.9634 26.4726C21.0477 26.5601 21.0477 26.6953 20.9632 26.7798H20.9632Z" fill="#1F98B3"/>
<path d="M24.6829 7.94922H15.885C14.7972 7.94922 13.9094 8.8342 13.9094 9.92479V31.3392C13.9094 32.427 14.7944 33.3147 15.885 33.3147H24.6829C25.7708 33.3147 26.6555 32.4297 26.6555 31.3392V9.92479C26.6555 8.8342 25.7706 7.94922 24.6827 7.94922H24.6829ZM25.9259 31.3362C25.9259 32.0211 25.3678 32.579 24.6831 32.579L15.8852 32.5792C15.2004 32.5792 14.6425 32.0211 14.6425 31.3364V29.158H25.9259V31.3362ZM25.9259 28.4281H14.642V11.1644H25.9253L25.9259 28.4281ZM25.9259 10.4317H14.642V9.92157C14.642 9.23673 15.2001 8.67885 15.8847 8.67885H24.6826C25.3675 8.67885 25.9253 9.23693 25.9253 9.92157L25.9259 10.4317Z" fill="#1F98B3"/>
<path d="M20.2842 32.069C20.9408 32.069 21.4735 31.5363 21.4735 30.8797C21.4735 30.2231 20.9408 29.6904 20.2842 29.6904C19.6277 29.6904 19.095 30.2231 19.095 30.8797C19.095 31.5335 19.6277 32.069 20.2842 32.069Z" fill="#1F98B3"/>
<path d="M16.8291 13.5713C17.1137 13.5713 17.3447 13.3401 17.3447 13.0556C17.3447 12.771 17.1135 12.54 16.8291 12.54C16.5444 12.54 16.3135 12.7712 16.3135 13.0556C16.3135 13.3403 16.5444 13.5713 16.8291 13.5713Z" fill="#1F98B3"/>
<path d="M17.1536 13.8726H16.5055C16.0884 13.8726 15.7476 14.2136 15.7476 14.6305V14.808H17.9118V14.6305C17.9116 14.2136 17.5706 13.8726 17.1537 13.8726H17.1536Z" fill="#1F98B3"/>
<path d="M23.7394 9.10156C23.4886 9.10156 23.283 9.30442 23.283 9.55801C23.283 9.81159 23.4858 10.0144 23.7394 10.0144C23.993 10.0144 24.1958 9.81159 24.1958 9.55801C24.1958 9.30462 23.9902 9.10156 23.7394 9.10156Z" fill="#1F98B3"/>
</svg>
