<svg width="20" height="15" viewBox="0 0 20 15" fill="none" xmlns="http://www.w3.org/2000/svg">
<path d="M0.66167 14.5183H14.56C14.9254 14.5183 15.2217 14.2225 15.2217 13.8584V12.5386L18.2765 13.8078C18.3582 13.8416 18.4447 13.8584 18.5308 13.8584C18.6596 13.8584 18.7875 13.8209 18.8978 13.7475C19.0823 13.625 19.1926 13.4193 19.1926 13.1985V4.6194C19.1926 4.39867 19.082 4.19267 18.8978 4.07022C18.7134 3.94824 18.4805 3.92568 18.2764 4.01015L15.2217 5.27928V3.95954C15.2217 3.59518 14.9251 3.29966 14.5599 3.29966H12.2436V0.659874C12.2436 0.29552 11.947 0 11.5819 0H1.98541C1.62001 0 1.32365 0.295762 1.32365 0.659874C1.32365 1.02423 1.62026 1.31975 1.98541 1.31975H10.92V3.29966H0.661765C0.296367 3.29966 0 3.59543 0 3.95954V13.8585C0 14.2229 0.296379 14.5184 0.661765 14.5184L0.66167 14.5183ZM17.8691 5.60917V12.2085L15.2217 11.1088V6.7089L17.8691 5.60917ZM1.32349 4.61921H13.8981V13.1983H1.32349V4.61921Z" fill="#10036C"/>
</svg>
