<svg width="22" height="22" viewBox="0 0 22 22" fill="none" xmlns="http://www.w3.org/2000/svg">
<rect x="0.458252" y="0.214844" width="21" height="21" rx="5" fill="#10036C" fill-opacity="0.2"/>
<path d="M17.5102 14.1794C17.4811 14.0764 17.4253 13.9829 17.3483 13.9086C17.2713 13.8342 17.176 13.7815 17.072 13.756C16.0424 13.4818 15.063 13.0459 14.17 12.4648C13.9911 12.3521 13.7664 12.3409 13.5773 12.4351C12.9682 12.7384 12.4904 13.2531 12.2331 13.883C11.3886 13.3148 10.6023 12.6646 9.88552 11.9419C9.16363 11.225 8.51412 10.4387 7.94658 9.59445C8.2917 9.45487 8.60496 9.24678 8.86737 8.98265C9.0818 8.76918 9.26049 8.52262 9.39657 8.25234C9.48815 8.06306 9.47614 7.84004 9.36482 7.66172C8.78279 6.76765 8.34697 5.78655 8.07357 4.75529C8.04834 4.65143 7.9957 4.55627 7.92133 4.47962C7.84687 4.40288 7.75322 4.34751 7.65021 4.31925C6.74366 4.06429 5.76967 4.28306 5.05924 4.90136C4.3142 5.7819 4.26337 7.22133 4.8984 8.95498C5.49111 10.5447 6.6321 12.234 8.10966 13.7136C9.58716 15.1932 11.2827 16.3321 12.8726 16.9311C13.5695 17.2068 14.3099 17.3565 15.0592 17.3735C15.7321 17.4022 16.3929 17.1889 16.922 16.7723V16.7597C17.2128 16.4248 17.4183 16.0246 17.5211 15.5932C17.6382 15.1288 17.6347 14.6419 17.5105 14.1792L17.5102 14.1794Z" fill="#10036C"/>
</svg>
