<svg width="17" height="17" viewBox="0 0 17 17" fill="none" xmlns="http://www.w3.org/2000/svg">
<path fill-rule="evenodd" clip-rule="evenodd" d="M12.0657 10.9631C12.3215 10.9631 12.5668 11.065 12.7473 11.2463L16.6934 15.2086C17.1022 15.6172 17.1022 16.2849 16.6934 16.6935C16.2845 17.1021 15.6164 17.1021 15.2076 16.6935L11.2516 12.7399C11.071 12.5594 10.9696 12.3146 10.9696 12.0593V11.787C10.9696 11.7124 10.9406 11.6407 10.8888 11.587C10.783 11.4773 10.6104 11.4697 10.4906 11.564C9.11655 12.6461 7.30007 13.1888 5.37541 12.8666C2.60326 12.3982 0.389523 10.0861 0.0504827 7.29568C-0.468049 3.08009 3.0819 -0.467775 7.29996 0.0504531C10.0921 0.389295 12.4055 2.60173 12.8742 5.37226C13.1965 7.29571 12.6535 9.11107 11.5709 10.4843C11.4765 10.604 11.4841 10.7767 11.5939 10.8826C11.6476 10.9343 11.7192 10.9631 11.7937 10.9631H12.0657ZM1.99491 6.47844C1.99491 8.95996 3.99924 10.9631 6.48221 10.9631C8.96518 10.9631 10.9695 8.95996 10.9695 6.47844C10.9695 3.99693 8.96518 1.99378 6.48221 1.99378C3.99924 1.99378 1.99491 3.99693 1.99491 6.47844Z" fill="#AEAEAE"/>
</svg>
