<svg width="14" height="15" viewBox="0 0 14 15" fill="none" xmlns="http://www.w3.org/2000/svg">
<path fill-rule="evenodd" clip-rule="evenodd" d="M12.5285 13.2402C12.5285 13.089 12.6511 12.9663 12.8021 12.9663C12.9537 12.9663 13.0764 13.0886 13.0764 13.2402V14.7264C13.0764 14.8777 12.9537 15 12.8021 15H0.273461C0.122175 15 0 14.8777 0 14.7264V1.56648C0 1.4152 0.122175 1.29286 0.273461 1.29286H2.57158V0.834212C2.57158 0.375567 2.94733 0 3.40579 0C3.86425 0 4.23955 0.375595 4.23955 0.834212V1.29286H5.70374V0.834212C5.70374 0.375119 6.07854 0 6.53795 0C6.9966 0 7.37172 0.375595 7.37172 0.834212V1.29286H8.83607V0.834212C8.83607 0.375567 9.21166 0 9.66999 0C10.1285 0 10.5038 0.375595 10.5038 0.834212V1.29286H12.8019C12.9535 1.29286 13.0761 1.41519 13.0761 1.56648V11.7539C13.0761 11.9051 12.9535 12.0278 12.8019 12.0278C12.6509 12.0278 12.5283 11.9051 12.5283 11.7539L12.5279 4.29547H3.24547C3.0945 4.29547 2.97184 4.17282 2.97184 4.02153C2.97184 3.87056 3.0945 3.7479 3.24547 3.7479H12.5283V1.84034H10.5039V2.29899C10.5039 2.75808 10.1294 3.13291 9.67009 3.13291C9.211 3.13291 8.83616 2.75812 8.83616 2.29899V1.84034H7.37181V2.29899C7.37181 2.75364 6.99686 3.13291 6.53805 3.13291C6.08291 3.13291 5.70384 2.75732 5.70384 2.29899V1.84034H4.23965V2.29899C4.23965 2.75808 3.86485 3.13291 3.40588 3.13291C2.94647 3.13291 2.57167 2.75812 2.57167 2.29899V1.84034L0.547352 1.84018V3.74774H1.75941C1.9107 3.74774 2.03304 3.8704 2.03304 4.02137C2.03304 4.17265 1.9107 4.29531 1.75941 4.29531L0.547352 4.29547V14.4527H12.5283V13.2402L12.5285 13.2402ZM6.53825 0.547866C6.38107 0.547866 6.25142 0.677042 6.25142 0.834212V2.29889C6.25142 2.45733 6.37805 2.58556 6.53825 2.58556C6.69812 2.58556 6.82427 2.45734 6.82427 2.29889V0.834375C6.82427 0.676883 6.69574 0.547866 6.53825 0.547866ZM9.67025 0.547866C9.5126 0.547866 9.38358 0.676565 9.38358 0.834212V2.29889C9.38358 2.45606 9.51307 2.58556 9.67025 2.58556C9.82742 2.58556 9.95659 2.45606 9.95659 2.29889V0.834212C9.95659 0.676879 9.82806 0.547866 9.67025 0.547866ZM3.40592 0.547866C3.24811 0.547866 3.11925 0.676565 3.11925 0.834212V2.29889C3.11925 2.45606 3.24843 2.58556 3.40592 2.58556C3.56277 2.58556 3.69195 2.45606 3.69195 2.29889V0.834212C3.6921 0.676879 3.56357 0.547866 3.40592 0.547866Z" fill="#10036C"/>
<path fill-rule="evenodd" clip-rule="evenodd" d="M3.01022 5.57252H5.62587C5.77748 5.57252 5.89949 5.69517 5.89949 5.84646V8.46223C5.89949 8.61352 5.77732 8.73617 5.62587 8.73617H3.01022C2.85861 8.73617 2.73596 8.61384 2.73596 8.46223V5.84613C2.73596 5.69517 2.85861 5.57251 3.01022 5.57251V5.57252ZM5.35207 6.11978H3.28402V8.188H5.35207V6.11978Z" fill="#10036C"/>
<path fill-rule="evenodd" clip-rule="evenodd" d="M3.01022 10.0123H5.62587C5.77748 10.0123 5.89949 10.1347 5.89949 10.286V12.902C5.89949 13.0533 5.77732 13.176 5.62587 13.176L3.01022 13.1761C2.85861 13.1761 2.73596 13.0535 2.73596 12.9022V10.2861C2.73596 10.1348 2.85861 10.0123 3.01022 10.0123ZM5.35207 10.56H3.28402V12.6286H5.35207V10.56Z" fill="#10036C"/>
<path fill-rule="evenodd" clip-rule="evenodd" d="M7.45049 5.57252H10.0661C10.2174 5.57252 10.3401 5.69517 10.3401 5.84646V8.46223C10.3401 8.61352 10.2174 8.73617 10.0661 8.73617H7.45049C7.2992 8.73617 7.17654 8.61384 7.17654 8.46223V5.84613C7.17654 5.69517 7.2992 5.57251 7.45049 5.57251V5.57252ZM9.79234 6.11978H7.72412V8.188H9.79234V6.11978Z" fill="#10036C"/>
<path fill-rule="evenodd" clip-rule="evenodd" d="M7.45049 10.0123H10.0661C10.2174 10.0123 10.3401 10.1347 10.3401 10.286V12.902C10.3401 13.0533 10.2174 13.176 10.0661 13.176L7.45049 13.1761C7.2992 13.1761 7.17654 13.0535 7.17654 12.9022V10.2861C7.17654 10.1348 7.2992 10.0123 7.45049 10.0123ZM9.79234 10.56H7.72412V12.6286H9.79234V10.56Z" fill="#10036C"/>
</svg>
