<svg width="16" height="22" viewBox="0 0 16 22" fill="none" xmlns="http://www.w3.org/2000/svg">
<path d="M1.88712 8.97857V12.9598C1.88712 15.0868 1.26063 17.1447 0.074685 18.9112C-0.0159201 19.0464 -0.0247593 19.22 0.0518499 19.3635C0.128459 19.5069 0.277625 19.5962 0.439865 19.5962H5.02825C5.24168 20.9555 6.41695 22 7.83512 22C9.2533 22 10.429 20.9559 10.6414 19.5966H15.2298C15.3922 19.5966 15.5414 19.5069 15.6178 19.3635C15.6944 19.22 15.6856 19.0462 15.595 18.9116C14.4092 17.145 13.7826 15.0871 13.7826 12.9602V8.97895C13.7826 6.21003 11.8773 3.88321 9.31077 3.22414C9.6056 2.8818 9.79031 2.44185 9.79031 1.9557C9.7905 0.877294 8.91321 0 7.83513 0C6.75705 0 5.87976 0.877294 5.87976 1.95589C5.87976 2.44203 6.06465 2.88165 6.3593 3.22433C3.79239 3.8834 1.88713 6.20965 1.88713 8.97867L1.88712 8.97857ZM7.83521 21.1204C6.90413 21.1204 6.12626 20.4679 5.92553 19.5971H9.74561C9.54415 20.4674 8.7663 21.1204 7.83521 21.1204ZM7.83521 0.879788C8.42837 0.879788 8.91103 1.36244 8.91103 1.9556C8.91103 2.54876 8.42837 3.03104 7.83521 3.03104C7.24205 3.03104 6.75978 2.54876 6.75978 1.9556C6.75941 1.36244 7.24205 0.879788 7.83521 0.879788ZM7.83521 3.91097C10.6297 3.91097 12.9027 6.18456 12.9027 8.97843V12.9597C12.9027 14.992 13.4312 16.9659 14.4383 18.7163H10.2401H10.2392H10.2383H5.43202H5.4311H5.43018H1.23201C2.23875 16.966 2.76709 14.9922 2.76709 12.9597V8.97843C2.76691 6.18442 5.04031 3.91097 7.83502 3.91097H7.83521Z" fill="#10036C"/>
<path d="M7.83521 5.67096C9.6591 5.67096 11.1428 7.15471 11.1428 8.97855C11.1428 9.22145 11.3398 9.41849 11.5827 9.41849C11.8256 9.41849 12.0227 9.22145 12.0227 8.97855C12.0227 6.66946 10.1439 4.79108 7.83521 4.79108C7.59231 4.79108 7.39526 4.98812 7.39526 5.23102C7.39526 5.47373 7.59231 5.67096 7.83521 5.67096Z" fill="#10036C"/>
</svg>
