<svg width="21" height="20" viewBox="0 0 21 20" fill="none" xmlns="http://www.w3.org/2000/svg">
<path d="M18.8807 9.99715C18.8636 13.6685 16.5315 17.0789 13.0589 18.3328C11.2999 18.9683 9.37626 19.0421 7.5776 18.5315C5.84693 18.038 4.30918 17.0166 3.15739 15.6376C0.768298 12.7719 0.495981 8.56189 2.42535 5.38984C4.33198 2.24631 8.11691 0.56098 11.7313 1.28724C15.3686 2.01928 18.2 4.98686 18.7841 8.65273C18.8522 9.09544 18.8805 9.54943 18.8805 9.9977C18.8863 10.7297 20.0211 10.7297 20.0153 9.9977C19.9983 5.81577 17.3483 2.04249 13.4275 0.595026C9.5236 -0.846305 4.94437 0.396328 2.3058 3.61387C0.989359 5.21966 0.194953 7.17735 0.0304985 9.24818C-0.133961 11.308 0.370897 13.4131 1.44336 15.1834C3.62802 18.781 7.91209 20.6364 12.0316 19.8023C16.0433 18.9852 19.2775 15.6089 19.8905 11.5634C19.9699 11.0413 20.0154 10.525 20.0154 9.99739C20.0154 9.26535 18.8804 9.26535 18.8804 9.99739L18.8807 9.99715Z" fill="#10036C"/>
<path d="M9.46128 3.33541V9.13994V9.97412C9.46128 10.7062 10.596 10.7062 10.596 9.97412V4.16958V3.33541C10.596 2.60337 9.46128 2.60337 9.46128 3.33541Z" fill="#10036C"/>
<path d="M10.0287 10.5417H14.4546H15.0788C15.8109 10.5417 15.8109 9.40698 15.0788 9.40698H10.6529H10.0287C9.29668 9.40698 9.29668 10.5417 10.0287 10.5417Z" fill="#10036C"/>
</svg>
