<svg width="20" height="15" viewBox="0 0 20 15" fill="none" xmlns="http://www.w3.org/2000/svg">
<path d="M0.66167 14.6467H14.56C14.9254 14.6467 15.2217 14.3509 15.2217 13.9868V12.6671L18.2765 13.9362C18.3582 13.97 18.4447 13.9868 18.5308 13.9868C18.6596 13.9868 18.7875 13.9493 18.8978 13.8759C19.0823 13.7534 19.1926 13.5477 19.1926 13.3269V4.74782C19.1926 4.52709 19.082 4.32109 18.8978 4.19864C18.7134 4.07665 18.4805 4.0541 18.2764 4.13857L15.2217 5.4077V4.08795C15.2217 3.7236 14.9251 3.42808 14.5599 3.42808H12.2436V0.788292C12.2436 0.423938 11.947 0.128418 11.5819 0.128418H1.98541C1.62001 0.128418 1.32365 0.42418 1.32365 0.788292C1.32365 1.15265 1.62026 1.44817 1.98541 1.44817H10.92V3.42808H0.661765C0.296367 3.42808 0 3.72384 0 4.08795V13.9869C0 14.3513 0.296379 14.6468 0.661765 14.6468L0.66167 14.6467ZM17.8691 5.73759V12.3369L15.2217 11.2372V6.83732L17.8691 5.73759ZM1.32349 4.74763H13.8981V13.3268H1.32349V4.74763Z" fill="#10036C"/>
</svg>
